<svg width="45" height="30" viewBox="0 0 45 30" fill="none" xmlns="http://www.w3.org/2000/svg">
<circle cx="7" cy="8" r="7" fill="#FEA401"/>
<path d="M4.67533 24.8675C4.46049 24.4475 4.29936 24.0032 4.19194 23.5345C4.08451 23.0559 4.0308 22.5579 4.0308 22.0403C4.0308 21.513 4.11869 20.8196 4.29447 19.9602C4.48002 19.1009 4.72904 18.1975 5.04154 17.2503C5.35404 16.2932 5.71537 15.3167 6.12553 14.3206C6.54545 13.3245 6.98979 12.3528 7.45854 11.4055C8.41557 9.43289 9.36772 7.72391 10.315 6.27859H10.1538C8.99174 6.27859 7.91264 6.54227 6.91654 7.06961C6.6724 7.25516 6.43803 7.34793 6.21342 7.34793C5.74467 7.34793 5.29057 7.11844 4.85112 6.65945C3.83549 5.58524 4.44096 4.69656 6.66752 3.99344C7.71244 3.65164 8.55229 3.48074 9.18705 3.48074C9.83158 3.48074 10.3492 3.58328 10.7398 3.78836C11.1304 3.98367 11.4624 4.21805 11.7359 4.49149C12.1656 4.92117 12.4683 5.34598 12.6441 5.7659C12.8296 6.18582 12.9224 6.55692 12.9224 6.87918C12.9224 7.19168 12.8247 7.61649 12.6294 8.15359C12.4439 8.68094 12.2046 9.24734 11.9117 9.85281L10.9156 11.7864C10.564 12.4602 10.2124 13.1682 9.86088 13.9104C9.50932 14.6526 9.15776 15.3948 8.80619 16.137C8.45463 16.8792 8.14213 17.6018 7.86869 18.305C7.27299 19.8772 6.97514 21.2102 6.97514 22.304C6.97514 22.968 7.03862 23.5149 7.16557 23.9446C7.59526 23.261 8.1226 22.5481 8.7476 21.8059L10.7984 19.5061C13.1714 16.9475 14.7144 15.2483 15.4273 14.4085C17.0972 12.4456 18.3765 10.595 19.2652 8.85672C19.6265 8.16336 19.8072 7.53348 19.8072 6.96707C19.8072 5.92215 19.5191 5.13602 18.9429 4.60867C18.7378 4.40359 18.7085 4.15457 18.855 3.8616C19.0113 3.56863 19.1675 3.34891 19.3238 3.20242C19.7046 2.86063 20.1343 2.68973 20.6128 2.68973C21.0913 2.68973 21.4966 2.78738 21.8287 2.9827C22.1607 3.17801 22.4292 3.42703 22.6343 3.72977C23.0542 4.32547 23.2642 5.06766 23.2642 5.95633C23.2642 6.83524 23.0738 7.76785 22.6929 8.75418C22.3218 9.74051 21.8287 10.7073 21.2134 11.6546C20.608 12.5921 19.9146 13.5052 19.1333 14.3938C18.3619 15.2727 17.5708 16.1126 16.7603 16.9134L12.3365 21.0882C10.9986 22.4358 10.105 23.3587 9.6558 23.8567C8.79643 24.8138 8.24467 25.4436 8.00053 25.7464C7.75639 26.0491 7.53666 26.2298 7.34135 26.2884C7.14604 26.347 6.88237 26.3763 6.55033 26.3763C6.2183 26.3763 5.87651 26.2298 5.52494 25.9368C5.18315 25.6438 4.89994 25.2874 4.67533 24.8675Z" fill="black"/>
<path d="M26.7093 22.6696C26.2499 23.8887 25.7549 24.9106 25.2242 25.7352C24.7008 26.5482 24.1204 27.0285 23.483 27.1761C23.1596 27.2511 22.8993 27.2312 22.7023 27.1164C22.3691 26.933 22.1772 26.7319 22.1265 26.5131C22.0758 26.2943 22.1097 26.116 22.2281 25.9783C23.4244 24.6085 24.3126 21.1949 24.8927 15.7376L25.1792 13.1451C25.5148 10.1804 25.9443 8.29151 26.4677 7.47858C26.6637 7.24271 26.8901 7.09502 27.1469 7.03551C27.4038 6.976 27.6373 6.96701 27.8474 7.00855C28.0553 7.04058 28.245 7.1019 28.4163 7.19251C28.8059 7.40298 29.0448 7.69849 29.1329 8.07903C29.166 8.22174 29.1468 8.44171 29.0753 8.73895C29.0039 9.03619 28.9321 9.4187 28.86 9.88649L28.2148 15.3438C30.4296 14.3896 32.1156 12.9916 33.2727 11.1497C34.3567 9.42497 34.7279 7.8253 34.3862 6.35069C34.0622 4.95219 33.2216 4.1796 31.8644 4.03292C31.401 3.97989 30.8839 4.0195 30.3131 4.15175C29.7518 4.28179 29.1928 4.4865 28.636 4.76586C28.0792 5.04522 27.5419 5.36519 27.0239 5.72577C25.9808 6.45864 25.1657 7.22388 24.5786 8.0215C24.4302 8.24635 24.2419 8.38522 24.0135 8.43812C23.7852 8.49102 23.5601 8.49304 23.3383 8.44419C23.1165 8.39535 22.9118 8.31245 22.7243 8.19549C22.2952 7.94407 22.0409 7.64711 21.9616 7.30462C21.88 6.95262 21.931 6.61002 22.1144 6.27681C22.2978 5.94361 22.5687 5.62021 22.9271 5.30662C23.2833 4.98351 23.708 4.67462 24.201 4.37994C24.6919 4.07575 25.2037 3.79679 25.7363 3.54307C26.8229 3.04073 27.9274 2.65951 29.0501 2.39942C30.1822 2.13713 31.2475 2.04068 32.2459 2.11008C33.2517 2.16776 34.1141 2.36391 34.8332 2.69853C36.2809 3.36555 37.1744 4.43162 37.5139 5.89672L37.5668 6.12504C37.8977 7.94296 37.5845 9.68457 36.6271 11.3499C35.7895 12.797 34.5701 14.0669 32.9687 15.1597C31.5254 16.1556 30.095 16.8179 28.6775 17.1463L28.3065 17.2322C28.1828 17.2609 28.0617 17.2789 27.9431 17.2864C27.5872 19.6443 27.1759 21.4387 26.7093 22.6696Z" fill="black"/>
</svg>
